<svg width="229" height="50" viewBox="0 0 229 50" fill="none" xmlns="http://www.w3.org/2000/svg">
<path d="M8.24072 31.1591L4.44685 35.1527L4.44685 41.4283H0L0 16.8917H4.44417L4.44417 29.4779L16.2678 16.8917H21.2593L11.2132 27.8637L21.8769 41.4283H16.6816L8.24072 31.1591Z" fill="#F06E8E"/>
<path d="M24.1659 22.7096H28.4394L28.4394 41.4285H24.1659L24.1659 22.7096Z" fill="#F06E8E"/>
<path d="M50.104 41.4284L45.2173 34.2428C45.0118 34.2658 44.7059 34.2768 44.2943 34.2768H38.8957V41.4284H34.4511L34.4511 16.8918H44.2938C46.152 16.8485 47.9983 17.2062 49.713 17.9419C51.1585 18.5638 52.3903 19.6135 53.2511 20.9571C54.0942 22.3552 54.5215 23.9751 54.4805 25.6185C54.524 27.3075 54.0652 28.9701 53.1652 30.3852C52.2391 31.7577 50.9187 32.7996 49.3879 33.3659L54.8921 41.4274L50.104 41.4284ZM48.4993 22.0094C47.4952 21.1679 46.0257 20.7471 44.091 20.7471H38.8957V30.528H44.091C46.0266 30.528 47.4961 30.1021 48.4993 29.2501C49.0045 28.8042 49.4029 28.2448 49.6633 27.6155C49.9238 26.9862 50.0395 26.3038 50.0014 25.6213C50.0408 24.9411 49.9256 24.2608 49.6649 23.634C49.4042 23.0072 49.0052 22.4511 48.4993 22.0094Z" fill="#F06E8E"/>
<path d="M74.9525 35.7489H62.99L60.6315 41.4283H56.0535L66.817 16.8917L71.1917 16.8917L81.9916 41.4283H77.3463L74.9525 35.7489ZM73.4808 32.1747L68.9712 21.4489L64.4962 32.1747H73.4808Z" fill="#F06E8E"/>
<path d="M26.2897 15.1881L27.1778 17.0342L29.1645 17.3301L27.7269 18.7674L28.0664 20.7963L26.2897 19.8381L24.513 20.7963L24.8525 18.7674L23.4148 17.3301L25.4016 17.0342L26.2897 15.1881Z" fill="#F06E8E"/>
<path d="M93.6813 31.1591L89.8879 35.1527V41.4283H85.4433V16.8917H89.8865V29.4779L101.71 16.8917H106.7L96.6547 27.8637L107.318 41.4278H102.123L93.6813 31.1591Z" fill="#F06E8E"/>
<path d="M109.607 22.7096H113.879V41.4285H109.607V22.7096Z" fill="#F06E8E"/>
<path d="M135.546 41.4283L130.659 34.2427C130.453 34.2657 130.147 34.2767 129.735 34.2767H124.337V41.4283H119.894V16.8918H129.737C131.594 16.8488 133.439 17.2065 135.153 17.9418C136.599 18.5637 137.83 19.6135 138.691 20.957C139.534 22.3553 139.961 23.9752 139.92 25.6185C139.964 27.3075 139.505 28.97 138.605 30.3851C137.679 31.7577 136.359 32.7997 134.828 33.3658L140.332 41.4274L135.546 41.4283ZM133.941 22.0094C132.937 21.1678 131.467 20.7471 129.532 20.7471H124.337V30.528H129.532C131.468 30.528 132.938 30.102 133.941 29.2501C134.446 28.8039 134.844 28.2445 135.104 27.6152C135.365 26.986 135.48 26.3037 135.443 25.6212C135.482 24.9411 135.367 24.2608 135.106 23.6341C134.845 23.0073 134.447 22.4512 133.941 22.0094Z" fill="#F06E8E"/>
<path d="M160.394 35.7489H148.431L146.073 41.4283H141.494L152.258 16.8917L156.633 16.8917L167.433 41.4283H162.786L160.394 35.7489ZM158.922 32.1747L154.411 21.4489L149.936 32.1747H158.922Z" fill="#F06E8E"/>
<path d="M114.093 18.5329L111.753 16.1332L109.414 18.5329L111.753 20.9325L114.093 18.5329Z" fill="#F06E8E"/>
<path d="M185.422 16.3765C185.341 15.9391 185.83 15.622 186.197 15.8733L192.8 20.3973C193.264 20.7152 193.867 20.7476 194.362 20.48L201.402 16.6705C201.793 16.4589 202.245 16.8249 202.12 17.2515L199.858 24.9302C199.699 25.4697 199.855 26.0531 200.262 26.4409L206.061 31.9593C206.383 32.2659 206.174 32.8091 205.73 32.8215L197.728 33.0423C197.166 33.0579 196.659 33.387 196.416 33.8944L192.96 41.1145C192.768 41.5155 192.187 41.4849 192.038 41.066L189.355 33.5244C189.166 32.9945 188.697 32.6146 188.139 32.5403L180.204 31.4834C179.764 31.4247 179.613 30.8631 179.965 30.5918L186.309 25.7094C186.755 25.3663 186.971 24.8023 186.869 24.2491L185.422 16.3765Z" fill="#F06E8E" stroke="#F06E8E"/>
<line x1="206.518" y1="14.5715" x2="226.646" y2="1.50018" stroke="#F06E8E" stroke-width="3" stroke-linecap="round"/>
<line x1="210.518" y1="28.5715" x2="222.259" y2="20.9466" stroke="#F06E8E" stroke-width="3" stroke-linecap="round"/>
</svg>
