<svg width="24" height="24" viewBox="0 0 24 24" fill="none" xmlns="http://www.w3.org/2000/svg">
<circle cx="12" cy="12" r="8" fill="#E60026"/>
<path d="M11.1312 11.6544C11.3232 10.9824 11.9912 10.4216 12.7232 10.336C12.8728 10.8912 13.0336 11.4344 13.1592 11.9864C13.2016 12.1704 13.1888 12.3824 13.1448 12.568C12.9744 13.2816 12.1464 13.5616 11.5624 13.116C11.1384 12.792 10.9688 12.22 11.1312 11.6544ZM14.1848 11.4968C14.0848 11.1248 13.98 10.7552 13.8704 10.3608C14.2704 10.4648 14.5968 10.6488 14.8744 10.9192C15.88 11.896 15.9824 13.5592 15.1096 14.704C14.2016 15.896 12.5856 16.4112 11.0872 15.988C9.24561 15.468 8.04081 13.6264 8.33441 11.7352C8.55361 10.3208 9.35041 9.33201 10.6544 8.74881C10.98 8.60321 11.1184 8.30081 10.9904 8.00481C10.8648 7.71361 10.5584 7.60161 10.2352 7.73041C8.05841 8.60161 6.77921 11.0376 7.29921 13.32C7.86961 15.8144 10.0952 17.4504 12.6392 17.2072C14.0248 17.0752 15.1704 16.4488 16.012 15.3296C17.2168 13.728 17.0496 11.5032 15.6416 10.1304C15.1088 9.61041 14.4648 9.31601 13.7296 9.20801C13.6632 9.19761 13.556 9.16641 13.544 9.12321C13.4744 8.87281 13.4 8.61761 13.3792 8.36001C13.356 8.07441 13.6112 7.84801 13.8992 7.84401C14.1016 7.84161 14.2464 7.94801 14.3816 8.08401C14.624 8.32401 14.9448 8.34161 15.172 8.13361C15.404 7.92241 15.4088 7.59121 15.1864 7.32721C14.7336 6.78961 13.9176 6.61441 13.2424 6.90881C12.5648 7.20481 12.1856 7.85841 12.2824 8.58321C12.3128 8.80721 12.3704 9.02881 12.416 9.25681L12.208 9.31441C11.5232 9.50641 10.9592 9.87761 10.5296 10.4456C9.79281 11.4216 9.78081 12.708 10.4968 13.6032C11.516 14.8784 13.4944 14.6304 14.1152 13.1488C14.3424 12.608 14.3352 12.0544 14.1848 11.4968Z" fill="white"/>
</svg>
