<svg width="24" height="24" viewBox="0 0 24 24" fill="none" xmlns="http://www.w3.org/2000/svg">
<path d="M12.0004 19.9572C10.5503 19.9572 9.21909 19.4719 8.36208 18.7469C7.9268 18.877 7.37003 19.0862 7.01878 19.3457C6.71807 19.5677 6.75554 19.7939 6.80975 19.8853C7.04764 20.2868 10.8908 20.1417 12.0004 20.0167V19.9572Z" fill="#FAAB07"/>
<path d="M12.0004 19.9572C13.4507 19.9572 14.7817 19.4719 15.6389 18.7469C16.074 18.877 16.6308 19.0862 16.9822 19.3457C17.2827 19.5677 17.2453 19.7939 17.1911 19.8853C16.9532 20.2868 13.11 20.1417 12.0004 20.0167V19.9572Z" fill="#FAAB07"/>
<path d="M12.0088 11.2658C14.4037 11.2496 16.3229 10.7861 16.9733 10.6083C17.1282 10.5659 17.2111 10.4898 17.2111 10.4898C17.2118 10.468 17.221 10.1 17.221 9.91008C17.221 6.71293 15.7117 3.50016 11.9999 3.5C8.28825 3.50016 6.77896 6.71293 6.77896 9.91008C6.77896 10.1 6.78821 10.468 6.78885 10.4898C6.78885 10.4898 6.85629 10.5609 6.97986 10.5954C7.58032 10.7625 9.53573 11.2491 11.9911 11.2658H12.0088Z" fill="black"/>
<path d="M18.5165 13.9293C18.3681 13.4516 18.1654 12.8945 17.9602 12.3594C17.9602 12.3594 17.8422 12.3449 17.7824 12.3622C15.9412 12.8971 13.7095 13.238 12.0088 13.2174H11.9912C10.2999 13.2377 8.08337 12.9008 6.24834 12.3711C6.17818 12.3508 6.03979 12.3594 6.03979 12.3594C5.83458 12.8945 5.63193 13.4516 5.48349 13.9293C4.77556 16.2074 5.005 17.1502 5.17959 17.1714C5.55428 17.2167 6.63818 15.4565 6.63818 15.4565C6.63818 17.2451 8.25301 19.9915 11.951 20.0167C11.9674 20.0165 12.0326 20.0165 12.049 20.0167C15.747 19.9915 17.3618 17.2451 17.3618 15.4565C17.3618 15.4565 18.4457 17.2167 18.8204 17.1714C18.995 17.1502 19.2244 16.2074 18.5165 13.9293Z" fill="black"/>
<path d="M10.6792 8.22352C10.1757 8.24632 9.74554 7.67265 9.71843 6.94352C9.69117 6.21391 10.0769 5.60404 10.5804 5.58124C11.0834 5.55875 11.5134 6.13211 11.5407 6.86156C11.5683 7.59117 11.1824 8.20104 10.6792 8.22352Z" fill="white"/>
<path d="M14.2814 6.94352C14.2544 7.67265 13.8242 8.24632 13.3207 8.22352C12.8175 8.20088 12.4317 7.59117 12.4592 6.86156C12.4865 6.13211 12.9165 5.55875 13.4196 5.58124C13.9231 5.60404 14.3088 6.21391 14.2814 6.94352Z" fill="white"/>
<path d="M15.1763 9.25332C15.0418 8.95532 13.6867 8.6232 12.009 8.6232H11.991C10.3133 8.6232 8.95824 8.95532 8.82367 9.25332C8.81761 9.26623 8.81378 9.28058 8.81378 9.29573C8.81378 9.31725 8.82112 9.33655 8.83228 9.35313C8.9458 9.51831 10.4505 10.3351 11.991 10.3351H12.009C13.5496 10.3351 15.0542 9.51847 15.1676 9.35313C15.1789 9.33671 15.1861 9.31709 15.1861 9.29557C15.1861 9.28042 15.1824 9.26623 15.1763 9.25332Z" fill="#FAAB07"/>
<path d="M11.2982 6.95416C11.3212 7.24227 11.1632 7.49818 10.9457 7.52608C10.7279 7.55414 10.5329 7.34336 10.5098 7.05509C10.487 6.76682 10.6448 6.51091 10.8618 6.48317C11.0801 6.45495 11.2754 6.66605 11.2982 6.95416Z" fill="black"/>
<path d="M12.6816 7.05046C12.726 6.97074 13.0291 6.55157 13.6565 6.70415C13.8214 6.74433 13.8976 6.80333 13.9137 6.82645C13.9375 6.86073 13.944 6.90952 13.9199 6.97521C13.8723 7.10547 13.7737 7.10196 13.7192 7.07645C13.684 7.06003 13.2469 6.76873 12.8443 7.20337C12.8166 7.23319 12.767 7.24339 12.7201 7.20799C12.6731 7.17244 12.6538 7.10053 12.6816 7.05046Z" fill="black"/>
<path d="M12.0089 13.1125H11.9912C10.8346 13.1265 9.43228 12.9733 8.07415 12.7056C7.95792 13.3788 7.88776 14.2249 7.94803 15.234C8.1003 17.7845 9.61501 19.3877 11.9529 19.411H12.0479C14.386 19.3877 15.9006 17.7845 16.053 15.234C16.1133 14.2248 16.0429 13.3788 15.9267 12.7054C14.5684 12.9733 13.1658 13.1265 12.0089 13.1125Z" fill="white"/>
<path d="M8.71429 12.8992V15.4091C8.71429 15.4091 9.86404 15.6409 11.016 15.4804V13.1653C10.2862 13.124 9.49923 13.032 8.71429 12.8992Z" fill="#EB1923"/>
<path d="M17.2111 10.4898C17.2111 10.4898 14.9746 11.1958 12.0088 11.2159H11.9911C9.03012 11.196 6.79648 10.4922 6.78883 10.4898L6.03976 12.3594C7.91338 12.9244 10.2353 13.2884 11.9911 13.2672H12.0088C13.7646 13.2884 16.0864 12.9244 17.9602 12.3594L17.2111 10.4898Z" fill="#EB1923"/>
</svg>
