<svg width="24" height="24" viewBox="0 0 24 24" fill="none" xmlns="http://www.w3.org/2000/svg">
<g clip-path="url(#clip0_15_111)">
<path d="M20.1445 7.88137C19.9494 7.14535 19.3728 6.5658 18.6416 6.36875C17.3164 6.01137 12 6.01137 12 6.01137C12 6.01137 6.68364 6.01137 5.35841 6.36875C4.62722 6.5658 4.05057 7.14535 3.85545 7.88137C3.5 9.21625 3.5 12 3.5 12C3.5 12 3.5 14.7838 3.85545 16.1186C4.05057 16.8547 4.62722 17.4342 5.35841 17.6313C6.6846 17.9886 12 17.9886 12 17.9886C12 17.9886 17.3164 17.9886 18.6416 17.6313C19.3728 17.4342 19.9494 16.8547 20.1445 16.1186C20.5 14.7847 20.5 12 20.5 12C20.5 12 20.5 9.21625 20.1445 7.88137Z" fill="#FF0000"/>
<path d="M10.2614 14.5278L14.7045 12L10.2614 9.47221V14.5278Z" fill="white"/>
</g>
<defs>
<clipPath id="clip0_15_111">
<rect width="17" height="11.9773" fill="white" transform="translate(3.5 6.01137)"/>
</clipPath>
</defs>
</svg>
